<!-- Generated by IcoMoon.io -->
<svg version="1.1" xmlns="http://www.w3.org/2000/svg" width="18" height="16" viewBox="0 0 18 16">
<title>list-nested</title>
<path d="M0 1.143c0-0.631 0.512-1.143 1.143-1.143s1.143 0.512 1.143 1.143c0 0.631-0.512 1.143-1.143 1.143s-1.143-0.512-1.143-1.143zM4.571 0h13.714v2.286h-13.714zM4.571 5.714c0-0.631 0.512-1.143 1.143-1.143s1.143 0.512 1.143 1.143c0 0.631-0.512 1.143-1.143 1.143s-1.143-0.512-1.143-1.143zM9.143 4.571h9.143v2.286h-9.143zM4.571 14.857c0-0.631 0.512-1.143 1.143-1.143s1.143 0.512 1.143 1.143c0 0.631-0.512 1.143-1.143 1.143s-1.143-0.512-1.143-1.143zM9.143 13.714h9.143v2.286h-9.143zM9.143 10.286c0-0.631 0.512-1.143 1.143-1.143s1.143 0.512 1.143 1.143c0 0.631-0.512 1.143-1.143 1.143s-1.143-0.512-1.143-1.143zM13.714 9.143h4.571v2.286h-4.571z"></path>
</svg>
