<!-- Generated by IcoMoon.io -->
<svg version="1.1" xmlns="http://www.w3.org/2000/svg" width="18" height="16" viewBox="0 0 18 16">
<title>list</title>
<path d="M0 1.143c0-0.631 0.512-1.143 1.143-1.143s1.143 0.512 1.143 1.143c0 0.631-0.512 1.143-1.143 1.143s-1.143-0.512-1.143-1.143zM0 5.715c0-0.631 0.512-1.143 1.143-1.143s1.143 0.512 1.143 1.143c0 0.631-0.512 1.143-1.143 1.143s-1.143-0.512-1.143-1.143zM0 10.286c0-0.631 0.512-1.143 1.143-1.143s1.143 0.512 1.143 1.143c0 0.631-0.512 1.143-1.143 1.143s-1.143-0.512-1.143-1.143zM0 14.857c0-0.631 0.512-1.143 1.143-1.143s1.143 0.512 1.143 1.143c0 0.631-0.512 1.143-1.143 1.143s-1.143-0.512-1.143-1.143zM4.572 0h13.713v2.286h-13.713zM4.572 4.572h13.713v2.286h-13.713zM4.572 9.143h13.713v2.286h-13.713zM4.572 13.715h13.713v2.286h-13.713z"></path>
</svg>
